<svg xmlns="http://www.w3.org/2000/svg" xmlns:xlink="http://www.w3.org/1999/xlink" viewBox="0 0 750 500" xmlns:v="https://vecta.io/nano"><style><![CDATA[.B{stroke-linejoin:round}.C{fill:#fff}.D{stroke:#263238}.E{stroke-linecap:round}.F{fill:#263238}.G{fill:none}.H{fill:#92e3a9}]]></style><use xlink:href="#B" class="H"/><use xlink:href="#B" opacity=".7" class="C"/><g class="B D H"><path d="M54,350.47a1.38,1.38,0,0,1-1.38-1.38V255.38a1.38,1.38,0,1,1,2.76,0v93.71A1.37,1.37,0,0,1,54,350.47Z"/><path d="M53.32 346.86s-6.75 3.49-8.49 13.26-5.58 27.57-5.58 27.57h27.21s-1.74-19.89-3.84-28.26-7.91-13.76-9.3-12.57z"/><path d="M58.19 347.91A4.19 4.19 0 1 1 54 343.3a4.4 4.4 0 0 1 4.19 4.61z"/><path d="M44.13 387.34l2.79-13.26m4.19-5.23l-2.44 14.3m5.93 3.84l.7-6.28m5.93 5.93l-1.75-13.61" class="E"/></g><path d="M122.11 147.25L49.37 258l127.13-54.39 85.84-77.33-140.23 20.97z" class="B D F"/><path d="M210,164.64c-6.32-13.28-35.3-12.7-64.73,1.3s-48.16,36.12-41.84,49.4l19.75,39,106.56-50.7Z" class="B C D"/><ellipse cx="176.48" cy="229.04" rx="59.01" ry="26.63" transform="matrix(.902961 -.429723 .429723 .902961 -81.29 98.04)" class="B D F"/><path d="M531.31,447.23H398.65l4.47-5.53A48.55,48.55,0,0,0,414,411.2V377.28H516V411.2a48.43,48.43,0,0,0,10.84,30.5Z" class="B C D"/><g class="F B D"><path d="M413.96 377.28H516v26.46H413.96z"/><rect x="259.9" y="86.8" width="410.17" height="301.17" rx="8.48"/></g><path d="M259.9 341.16h410.17a0 0 0 0 1 0 0v38.33a8.48 8.48 0 0 1-8.48 8.48H268.38a8.48 8.48 0 0 1-8.48-8.48v-38.33a0 0 0 0 1 0 0zm20.63-235.62h368.9v212.78h-368.9z" class="C B D"/><path d="M502.08 131.87h138.01v167.59H502.08z" class="B D G"/><g class="C B D"><path d="M640.1 169.89l-11.97-16.19-54.22 93.65-23.94-16.9-47.89 69H640.1V169.89z"/><circle cx="536.94" cy="169.54" r="20.07" transform="matrix(.707107 -.707107 .707107 .707107 37.38 429.33)"/></g><path d="M299.9 168.64l.5-28.65h6.79l3.14 16.66 3.4-16.66h6.54l.5 28.65h-4.49l-.53-19.07-3.33 19.07h-4l-3.53-19.21-.43 19.21zm28.33 0v-11.71L322.79 140h6l2.73 9 2.44-9h5.73l-5.34 16.94v11.71zm25.19 0v-23.95h-4.32V140h15v4.7h-4.28v23.95zm13.26 0V140H373v11.6h4.43V140h6.36v28.65h-6.36v-12.53H373v12.52zm21.47 0V140H401v4.31h-6.54v7.11h5v4.39h-5v8.56h6.61v4.28zm23.42.42a9.6 9.6 0 0 1-4.49-.95 6.12 6.12 0 0 1-2.73-3 13.62 13.62 0 0 1-1-5.18l5.41-.81a12.64 12.64 0 0 0 .34 3 3.32 3.32 0 0 0 .84 1.63 1.92 1.92 0 0 0 1.33.49 1.26 1.26 0 0 0 1.29-.67 3.43 3.43 0 0 0 .3-1.41 5.07 5.07 0 0 0-.85-3 12.63 12.63 0 0 0-2.3-2.46l-2.47-2.16a13.56 13.56 0 0 1-2.74-3.13 7.86 7.86 0 0 1-1.12-4.33 7.07 7.07 0 0 1 2.16-5.57 8.48 8.48 0 0 1 5.87-1.93 7.56 7.56 0 0 1 3.7.78 5.39 5.39 0 0 1 2.12 2 8.35 8.35 0 0 1 1 2.65 16.05 16.05 0 0 1 .3 2.67l-5.44.68a17.2 17.2 0 0 0-.16-2.22 3.17 3.17 0 0 0-.52-1.45 1.41 1.41 0 0 0-1.2-.51 1.37 1.37 0 0 0-1.29.74 3.1 3.1 0 0 0-.41 1.49 4.24 4.24 0 0 0 .76 2.6 15.28 15.28 0 0 0 2 2.1l2.37 2.09a16.19 16.19 0 0 1 3.17 3.61 9.08 9.08 0 0 1 1.29 5 7.42 7.42 0 0 1-.92 3.66 6.77 6.77 0 0 1-2.6 2.6 8 8 0 0 1-4.01.99zm10.05-.42V140H428v28.65zm18.21.42a9.6 9.6 0 0 1-4.49-.95 6.1 6.1 0 0 1-2.72-3 13.42 13.42 0 0 1-1-5.18l5.41-.81a13.2 13.2 0 0 0 .34 3 3.24 3.24 0 0 0 .85 1.63 1.88 1.88 0 0 0 1.32.49 1.26 1.26 0 0 0 1.29-.67 3.45 3.45 0 0 0 .31-1.41 5.14 5.14 0 0 0-.85-3 13.28 13.28 0 0 0-2.3-2.46l-2.48-2.16a13.8 13.8 0 0 1-2.74-3.13 7.94 7.94 0 0 1-1.11-4.33 7.06 7.06 0 0 1 2.15-5.57 8.49 8.49 0 0 1 5.88-1.93 7.55 7.55 0 0 1 3.69.78 5.39 5.39 0 0 1 2.12 2 8.11 8.11 0 0 1 1 2.65 17.24 17.24 0 0 1 .31 2.67l-5.45.68a17.2 17.2 0 0 0-.16-2.22 3.17 3.17 0 0 0-.51-1.45 1.42 1.42 0 0 0-1.21-.51 1.37 1.37 0 0 0-1.29.74 3.1 3.1 0 0 0-.41 1.49 4.18 4.18 0 0 0 .77 2.6 14.58 14.58 0 0 0 2 2.1l2.37 2.09a16.19 16.19 0 0 1 3.17 3.61 9.08 9.08 0 0 1 1.29 5 7.42 7.42 0 0 1-.92 3.66 6.77 6.77 0 0 1-2.6 2.6 8 8 0 0 1-4.03.99z" class="F"/><g class="D"><path d="M300.7 188.9h186.6m-186.6 15.5h186.6m-186.6 15.49h186.6" stroke-miterlimit="10" class="G"/><path d="M280.53 105.54h368.9v21.16h-368.9zm0 199.5h368.9v13.28h-368.9z" class="B C"/><path d="M398.65 447.22h132.7v6.06h-132.7z" class="B F"/><path d="M325.75 441.35V421a11.93 11.93 0 0 1 11.93-11.93h-153.6A11.93 11.93 0 0 0 172.15 421v20.36a11.93 11.93 0 0 0 11.93 11.93h153.6a11.93 11.93 0 0 1-11.93-11.94z" fill="#8c8c8c" class="B"/><path d="M437.84,410.68l1.34-.88a.4.4,0,0,0-.22-.74H337.68A11.93,11.93,0,0,0,325.75,421v20.36a11.93,11.93,0,0,0,11.93,11.93H439a.4.4,0,0,0,.22-.73l-1.34-.88Z" fill="#949494" class="B"/><path d="M344.16 410.68h93.68a0 0 0 0 1 0 0v41a0 0 0 0 1 0 0h-93.68a16.2 16.2 0 0 1-16.2-16.2v-8.59a16.2 16.2 0 0 1 16.2-16.21z" class="B C"/><path d="M331.4 418.22h39.52m-10.38 3.76h36.87m-14.57 4.63h-35.32m-15.24 14.13h23.18m-5.96 3.31h34.66m-38.85 3.09h9.27m16.78-9.49h58.94m6.85-9.49h-12.14m10.15-3.09H422.8m12.36 19.86h-30.91" class="E G B"/><path d="M335.61 396.92v-20.36a11.93 11.93 0 0 0-11.93-11.93h112.48a11.93 11.93 0 0 1 11.92 11.93v20.36a11.93 11.93 0 0 1-11.92 11.93H323.68a11.93 11.93 0 0 0 11.93-11.93z" class="B C"/><path d="M223.52,366.25l-1.34-.88a.4.4,0,0,1,.22-.74H323.68a11.93,11.93,0,0,1,11.93,11.93v20.36a11.93,11.93,0,0,1-11.93,11.93H222.4a.4.4,0,0,1-.22-.73l1.34-.88Z" fill="#949494" class="B"/><path d="M316.43 407.23h-92.9 0v-41h0 92.9c9.389 0 17 7.611 17 17v7a17 17 0 0 1-17 17z" class="B C"/><path d="M329.96 373.79h-39.52m10.38 3.75h-36.87m14.57 4.64h35.32m15.24 14.13H305.9m5.96 3.31H277.2m38.85 3.09h-9.27M290 393.22h-58.94m-6.85-9.49h12.14m-10.15-3.1h12.36M226.2 400.5h30.91" class="E G B"/><path d="M404.41 231.59s2.94 1.57 3.71-3.5-2.84-5.18-3.46-8.76-.74-6.94-7.3-8.85-8.83 1.54-10.43 3.76-5.5.69-11.85 4.3-6.91 7.71-7.08 9.64-4.62 4.74-7.5 11.1-.9 8-1.29 10.14-6.29-1-9.39 5.88 2.92 13.58 2.92 13.58a8.83 8.83 0 0 0-8.82 8c-1.13 8.21 3.11 12.13 7.46 12.93s9.44-4.45 10.78-.9-.43 7.71 9.66 7.56 11.79-5.73 11.67-8.85.88-8.44 4.26-8.09 8.6-1.29 10.71-2.57 5.2-2.13 6.56-4.34 3.22-3.73 3.31-7.57-4.86-7.93-2.75-9.36 5.49-.84 4.54-6.81-3.17-6.16-4.93-9.42-.78-7.87-.78-7.87z" class="B F"/><g class="C B"><path d="M418.2 342s34 3.37 36.32 6.56 33.32 42.33 35 43.36l1.68 1s13-9 15.11-11.77 1.56 5.12-.21 8.74-5.14 7.62-8.19 11.94c-1.65 2.33-2.34 5.39-6.18 5s-4-4.76-7.41-8.18S464.69 385.2 456 379.8a24.91 24.91 0 0 1-10.71-13.8l-41-4.13v-4.33a22.79 22.79 0 0 1 4.9-7.56" class="E"/><path d="M506.31 381.16c-2.08 2.81-15.11 11.77-15.11 11.77l-1.68-1c-.48-.3-3.41-3.77-7.39-8.63a16 16 0 0 0-7.91 8.06c4.68 3.08 8.61 5.83 10.1 7.32 3.4 3.42 3.57 7.79 7.41 8.18s4.53-2.66 6.18-5c3-4.32 6.42-8.32 8.19-11.94s2.29-11.57.21-8.76z"/></g><path d="M506.31 381.16c-2.08 2.81-15.11 11.77-15.11 11.77s-1 .26-.07 2.18L492 397l-5.49 4.57c1.54 2.58 2.4 4.94 5.18 5.22 3.84.4 4.53-2.66 6.18-5 3-4.32 6.42-8.32 8.19-11.94s2.33-11.5.25-8.69z" class="B H"/><g class="C B"><path d="M506.31 381.16a6.15 6.15 0 0 1-.53.61l-.48 4.31c-.32 3.44-4.2 9.53-8.82 14.28a55.87 55.87 0 0 1-6.67 5.78 4.08 4.08 0 0 0 1.92.69c3.84.4 4.53-2.66 6.18-5 3-4.32 6.42-8.32 8.19-11.94s2.29-11.54.21-8.73zM387.68 268.22s-11.46-9.74-13.43-14-11-22.19-16-28.79L342.55 205c-.7-.65-1.21-2-3.09-3.73s-7.39-4-9.21-4.4-3 5.77-3.3 8.27 1.51 4.24 3.79 4.61 7.3 1.75 7.3 1.75 13 27.55 16.38 32 16.88 33.28 18.36 36.61l6.69 15.13c.26.9-.35 8.6-2.66 13.22s-11.81 17.62-14.87 26.11-.95 16.55 5.15 22.19 17.17 5.46 22.15 5.72 29.59-1.13 29.59-1.13a102.21 102.21 0 0 0 1.43-27.65c-1.27-15.56-1.56-17.13-1.57-23.46s-1.41-24.83-1.41-24.83l10.69-28.23c2.06-5.51 12.07-21.49 12.76-27s9.62-32.48 9.62-32.48 5.81-1.81 6.23-2.73 1.6-5.26 1.8-6-6.22-2.92-7.59-3.32-5.24 5.05-5.79 7.35-6.43 15.17-9.84 20.51-7.84 13.87-9.25 18.44l-2.82 9.16-15.87 22.54-2.82 3.28s-7.94 6.16-16.72 1.29z"/><path d="M330.71 209.79c2.28.36 7.3 1.75 7.3 1.75s13 27.55 16.38 32c2.15 2.84 8.57 15.89 13.24 25.68l11.64-8.73c-2.26-2.3-4.29-4.62-5-6.18-2-4.22-11-22.19-16-28.79l-15.7-20.43c-.7-.65-1.21-2-3.09-3.73s-7.39-4-9.21-4.4-3 5.77-3.3 8.27 1.46 4.19 3.74 4.56zm119.64-12.04s5.81-1.81 6.23-2.73 1.6-5.26 1.8-6-6.22-2.92-7.59-3.32-5.24 5-5.79 7.3-6.43 15.17-9.84 20.51-7.84 13.87-9.25 18.44l-2.82 9.16-13.12 18.63 15.63 3.86 2.41-6.4c2-5.5 12.07-21.49 12.76-27s9.58-32.45 9.58-32.45zm-62.76 56.45l.09 14s4.36 7.75 8.87 7.35 7.81-8.66 7.81-8.66l-2-10.78s-10.59.89-14.77-1.91z"/><path d="M391.69 226.19a5.65 5.65 0 0 0-5.33 2.3c-2 2.87-1.22 4.77-1.76 8.81a11.53 11.53 0 0 1-5.82 7.91 40.32 40.32 0 0 0-4.62 2.45s.84 3.81 2.47 5.15 4.17-.51 4.17-.51 4.55 4.54 8.81 6.3 12.68 2.66 16-2.88 1.09-17-.34-22.53-3.73-6.15-3.73-6.15-6.45-3.25-9.85-.85z"/></g><path d="M387.89 241.19a4.14 4.14 0 0 1 5-2.46m6.72-2.01s2-2 3.82-.49m-6.12-.12a16.94 16.94 0 0 0 3.45 3.36c1.61 1 3.2 1.46 2.56 2.88s-2.39 1.49-3.45 1.35" class="E G B"/><path d="M401.75 247a7.32 7.32 0 0 1-8.09-1.26s.2 5.23 3 5.13 5.09-3.87 5.09-3.87z" class="B F"/><g class="G B"><path d="M395.32 239a5.41 5.41 0 1 0-5.2 5.62 5.41 5.41 0 0 0 5.2-5.62zm12.93-4.71a5.41 5.41 0 1 0-5.2 5.62 5.42 5.42 0 0 0 5.2-5.62z"/><path d="M384.93 241.48l-6.15 3.73m16.27-7.72a1.55 1.55 0 0 1 2.83-.79m-12.26-3.27s1.19-3.9 4.71-3.86m8.34-1.83a4.32 4.32 0 0 1 5.07 1" class="E"/></g><g class="C B"><path d="M332.87 196.1s-4.12-2.48-5-1.95-1.76 3.21-1 3.94 5.18.56 5.93.65.07-2.64.07-2.64z"/><path d="M333.43 197.71s-5.71-1.54-6.45-1.13-1.27 2.94-1.11 3.81 5.58 1.3 6.95.87 2.07-1.72.61-3.55z"/><path d="M335.43 200.53s-7.35-1.48-8.46-.81-1.35.93-1.29 2.31 0 3.5 1.24 3.15 7.29-.45 7.88-1.36a8.75 8.75 0 0 0 .63-3.29z"/><g class="E"><path d="M328.34 209.1s-2.25-2.93-2.28-3.69 1-2.93 1.77-3.08 7.32.85 7 1.49 0 1-1.46 1.19l-3 .49a43.13 43.13 0 0 0 4.32 1.22"/><path d="M342.52,205a45.74,45.74,0,0,1-2.07-4.83c-.44-1.49-6.37-5.29-7.27-5.76s-1.91,6-1.84,7.62,1.11,2.85,1.71,2a14.36,14.36,0,0,0,1.13-3.19,10.5,10.5,0,0,0,1.64,3.46,5.69,5.69,0,0,0,3.33,1.38"/></g><path d="M452.88 184.75s3.53-2.52 4.35-2.1 1.8 2.77 1.15 3.48-4.62.85-5.3 1-.2-2.38-.2-2.38z"/><path d="M452.48 186.24s5-1.78 5.73-1.47 1.35 2.56 1.27 3.36-4.94 1.55-6.2 1.26-1.98-1.39-.8-3.15z"/><path d="M450.88 188.91s6.51-1.84 7.56-1.31 1.27.75 1.32 2 .26 3.15-.9 2.92-6.59.1-7.19-.68a7.74 7.74 0 0 1-.79-2.93z"/><g class="E"><path d="M453.76 196.39s5.92-3 5.89-3.73-1.12-2.56-1.8-2.65-6.54 1.27-6.18 1.82 0 .91 1.4 1l2.74.24a38.56 38.56 0 0 1-3.81 1.39"/><path d="M444.81,193.46a41.84,41.84,0,0,0,1.53-4.49c.29-1.37,5.36-5.2,6.14-5.68s2.13,5.25,2.19,6.73-.81,2.64-1.41,1.87a13.26,13.26,0,0,1-1.24-2.8,9.53,9.53,0,0,1-1.24,3.23,5.09,5.09,0,0,1-2.9,1.48"/></g></g><path d="M418.88 247l-11.7 16.62-2.82 3.28s-7.9 6.18-16.68 1.31c0 0-11.46-9.74-13.43-14l-2.61-5.3a28.56 28.56 0 0 0-10.1 7.69c4.85 9.73 10.3 21.4 11.21 23.45l6.69 15.13c.26.9-.35 8.6-2.66 13.22-1.71 3.4-7.31 11.4-11.36 18.77 23.27 10.33 45.87 5.79 54.58 3.33-1.05-12.65-1.3-14.44-1.31-20.31 0-6.34.84-31.31.84-31.31l8.44-21.75c.23-.63.57-1.4 1-2.27-3.21-4.92-6.97-7.03-10.09-7.86z" class="B H"/><g class="E B"><path d="M386.29 270.94s6.88 10.33 15.3 13.77m5.59-21.08a15.89 15.89 0 0 1-2.16 9m-9.62 22.3a23.49 23.49 0 0 0 2.75 2.79m-13.78-22.19s4 9.89 9.24 17.11" class="G"/><path d="M382,345.27s34.19,1.7,36.84,6.51,9.37,52.34,10.66,57.48,4,11.05,4.81,11.56,19.93-7.31,19.74-5.12-5.7,8.13-10.42,13.23-10,8.85-11.41,8.63-8.46-14.15-14.06-24.86-10.46-16.53-13.88-27.32a96.66,96.66,0,0,1-3.85-22.25s-20.06,3.77-28.73-1.36-13.07-13.42-9.89-23.1" class="C"/></g><path d="M434.32 420.82c-.84-.51-3.52-6.42-4.81-11.56-.18-.7-.46-2.21-.82-4.28a30.13 30.13 0 0 0-10.75 7.29l.23.43c5.6 10.71 12.68 24.64 14.06 24.86s6.69-3.54 11.41-8.63 10.23-11 10.42-13.23-18.9 5.63-19.74 5.12z" class="B C"/><path d="M431.78 423.4a10.35 10.35 0 0 0 1.26 3.87l-4.9 4.24c2 3.55 3.52 6 4.09 6.05 1.37.22 6.69-3.54 11.41-8.63s10.23-11 10.42-13.23-18.9 5.63-19.74 5.12c0 0-2.92.08-2.54 2.58z" class="B H"/><path d="M453.78 415.37c-13.38 14-19.89 18.95-22.91 20.68.62.91 1.1 1.47 1.36 1.51 1.37.22 6.69-3.54 11.41-8.63s10.23-11 10.42-13.23c.01-.17-.06-.27-.28-.33z" class="B C"/><g fill="#d1d1d1" class="B"><path d="M407.43 348.87l-25.75-7.68 44.68-4.75 24.51 7.82-43.44 4.61z"/><path d="M450.87 344.26l-43.44 4.61 7.38-32.4 44.83-2.3-8.77 30.09z"/></g><path d="M324.18 231.69l.07-3.3-.95 2.11-.75-1V225l-2.45-.38-.19-2.26-1.32-.38v-2.45l-1.69-.37v-2.64l-2.83-.57-.57-1.32-2.46-.76h0l-73.11 16.08-76.25-6.5-10.52 74.86c-5.52 35.57-30 125-30 125l-5.2 6.4 1.94 2.71-1 .79 2.19.92 1.07 1.48-.43 1.18 1.93.91 1.06 1.47-.35 1.39 2 1 .82 1.14-1 1.67 3.12 1.33 1.19 1.64-.92 1.37 3 1.49 1 1.41-.58.68h1.08l1 1.33 157.68-.52 27.5-153c4.67-35.23 7.26-66.41 7.26-66.41z" class="B C"/><path d="M156.93,217s-4.15,61.22-14.53,107.39S116,429.67,116,429.67s98.39,1.39,156.49-.16c0,0,26.67-114,31.33-149.25s7.27-66.4,7.27-66.4S172,219.56,156.93,217Z" class="B H"/><g class="E G B"><path d="M127.25 439.8l63.31 2.77m-15.89-2.63l21.84.95m58.64 5.32l-35.14.19m62.21 3.06l-19.85-.03M277.19 436s5.7 9.69 11.4 15.38"/><path d="M284.98 430.44l-2.66 13.11-18.6.13m25.06-20.46l-3.99 17.1m-8.36-1.33l-36.67.38M318 229.63l-7 66.3m10.45-67.25l-1.33 15.01m-10.82 35.52s-3.61 29.07-7 46.36m-44.75 123.89h-14.64m-115.86-5.01l40.47 1.92"/><path d="M147.48 436.74l12.33.38m142.46-67.45l-11.57 57.82"/></g></g><path d="M176.29 312.36l4.39-24.72h-4.37l.86-4.85h15.17l-.86 4.86h-4.34l-4.4 24.71zm13.44-.03l5.27-29.57h6.41l-2.13 12h4.48l2.14-12h6.45l-5.26 29.57h-6.46l2.3-12.92h-4.48l-2.3 12.92zm21.77-.05l5.26-29.57h13.05l-.79 4.45h-6.64l-1.3 7.34h5l-.8 4.52h-5.06l-1.57 8.84h6.7l-.78 4.42zm23.65.39a8.55 8.55 0 0 1-4.37-1 4.81 4.81 0 0 1-2.22-3 13.34 13.34 0 0 1-.09-5.35l5.63-.85a13.12 13.12 0 0 0-.2 3.07 2.79 2.79 0 0 0 .56 1.67 1.62 1.62 0 0 0 1.26.51 1.56 1.56 0 0 0 1.43-.69 4.26 4.26 0 0 0 .56-1.47 4.84 4.84 0 0 0-.31-3.08 10.27 10.27 0 0 0-1.88-2.53l-2.11-2.22a11 11 0 0 1-2.21-3.23 7.63 7.63 0 0 1-.33-4.47 9 9 0 0 1 3.21-5.75 10 10 0 0 1 6.31-2 6.81 6.81 0 0 1 3.6.8 4.28 4.28 0 0 1 1.78 2.09 7.67 7.67 0 0 1 .52 2.74 18.89 18.89 0 0 1-.19 2.76l-5.65.7a20.44 20.44 0 0 0 .25-2.28 2.84 2.84 0 0 0-.25-1.5 1.19 1.19 0 0 0-1.13-.52 1.68 1.68 0 0 0-1.44.77 3.72 3.72 0 0 0-.69 1.53 4 4 0 0 0 .29 2.68 11.35 11.35 0 0 0 1.64 2.17l2 2.15a12.83 12.83 0 0 1 2.55 3.72 8.76 8.76 0 0 1 .39 5.14 9.09 9.09 0 0 1-1.6 3.78 8.9 8.9 0 0 1-3.12 2.69 9 9 0 0 1-4.19.97zm10.27-.46l5.26-29.58h6.42l-5.27 29.57zm18.38.39a8.51 8.51 0 0 1-4.38-1 4.85 4.85 0 0 1-2.21-3.05 13.29 13.29 0 0 1-.09-5.34l5.63-.85a13 13 0 0 0-.2 3.06 2.79 2.79 0 0 0 .56 1.68 1.61 1.61 0 0 0 1.25.51 1.58 1.58 0 0 0 1.44-.7 4.21 4.21 0 0 0 .56-1.46 4.83 4.83 0 0 0-.31-3.08 10.53 10.53 0 0 0-1.88-2.53l-2.11-2.23a10.94 10.94 0 0 1-2.21-3.22 7.55 7.55 0 0 1-.33-4.47 9 9 0 0 1 3.21-5.76 10 10 0 0 1 6.31-2 6.72 6.72 0 0 1 3.6.8 4.28 4.28 0 0 1 1.78 2.09 7.62 7.62 0 0 1 .51 2.74 17.41 17.41 0 0 1-.18 2.75l-5.65.71a21 21 0 0 0 .25-2.28 2.8 2.8 0 0 0-.25-1.5 1.2 1.2 0 0 0-1.1-.47 1.74 1.74 0 0 0-1.45.77 4.24 4.24 0 0 0-.39 4.22 11.67 11.67 0 0 0 1.64 2.17l2 2.15a12.92 12.92 0 0 1 2.55 3.71 8.79 8.79 0 0 1 .39 5.15 9.11 9.11 0 0 1-4.72 6.47 8.87 8.87 0 0 1-4.22.96z" class="F"/><g class="B C D"><path d="M168 236.47a4.19 4.19 0 1 0-4.19 4.18 4.2 4.2 0 0 0 4.19-4.18zm-5.21 39.89a4.19 4.19 0 1 0-4.18 4.18 4.19 4.19 0 0 0 4.18-4.18zm-6.55 39.89a4.19 4.19 0 1 0-4.18 4.19 4.18 4.18 0 0 0 4.18-4.19zm-9.6 39.89a4.19 4.19 0 1 0-4.19 4.19 4.19 4.19 0 0 0 4.19-4.19z"/><circle cx="133.97" cy="396.03" r="4.18"/></g><path d="M127.18 387.81a8.5 8.5 0 0 0-8.41 8.58 8.68 8.68 0 0 0 4 7.33l.91-3.18a5.6 5.6 0 0 1-1.84-4.15 5.32 5.32 0 1 1 10.64 0 1.55 1.55 0 1 0 3.09 0 8.5 8.5 0 0 0-8.39-8.58zm8.48-39.9a8.61 8.61 0 0 0-2.8 16.68l.67-3.07a5.5 5.5 0 0 1-3.19-5 5.32 5.32 0 1 1 10.63 0 1.55 1.55 0 0 0 3.1 0 8.51 8.51 0 0 0-8.41-8.61zm9.6-39.91a8.51 8.51 0 0 0-8.41 8.59 8.61 8.61 0 0 0 5.5 8.05l.66-3.1a5.51 5.51 0 0 1-3.07-4.95 5.32 5.32 0 1 1 10.64 0 1.55 1.55 0 0 0 3.1 0 8.52 8.52 0 0 0-8.42-8.59zm6.55-39.87a8.6 8.6 0 0 0-2.26 16.87l.46-3.11a5.49 5.49 0 0 1-3.52-5.15 5.32 5.32 0 1 1 10.64 0 1.55 1.55 0 0 0 3.1 0 8.52 8.52 0 0 0-8.42-8.61zm5.19-39.89a8.51 8.51 0 0 0-8.42 8.58 8.62 8.62 0 0 0 5.68 8.12l.39-3.21a5.53 5.53 0 0 1-3-4.91 5.32 5.32 0 1 1 10.64 0 1.55 1.55 0 1 0 3.09 0 8.5 8.5 0 0 0-8.38-8.58z" fill="#8c8c8c" class="B D"/><defs ><path id="B" d="M591.43,66.69C519.72,57.35,479,97.12,382.59,101.45,286.84,94,250.33,52.89,177.76,59.85,99.68,67.33,39.2,169.07,56.41,270.85S180.27,429.52,234.79,429.17c43.58-.28,82.07-18,131.76-22.26,49.15,5.88,85.72,24.85,129.19,26.57,54.39,2.16,166.82-51.12,194.68-152.15S668.59,76.73,591.43,66.69Z"/></defs></svg>