<svg version="1.1" id="Layer_1" xmlns="http://www.w3.org/2000/svg" x="0px" y="0px" width="36px" height="36px"
     viewBox="0 0 600 600" enable-background="new 0 0 600 600" xml:space="preserve">
  <g>
    <path id="color_x5F_2" fill="#0D4878"
          d="M509.215,325.315c-6.862,86.962-27.859,186.142-80.937,264.906        c-4.367,6.482-11.767,10.261-19.566,9.73l-230.597-15.654c-13.616-0.924-22.966-14.034-19.405-27.207        c16.313-60.37,51.53-218.463,20.399-365.485c-2.582-12.211,5.583-24.06,17.923-25.89l284.463-42.146        c12.115-1.791,23.276,6.805,24.656,18.978c2.577,22.744,5.919,61.408,5.956,108.352c-25.769,10.843-50.128,24.934-72.681,41.582        c-35.993,26.555-68.004,59.724-95.325,95.337c-4.09,5.584-8.109,11.236-11.996,16.971c-1.545-1.279-3.102-2.551-4.747-3.747        c-25.612-18.598-54.3-36.987-86.326-42.183l-0.823-0.133c-0.823-0.134-1.684,0.215-2.175,0.955        c-0.664,1.007-0.386,2.361,0.624,3.026c9.821,6.475,19.047,13.825,27.891,21.617c26.608,23.465,49.383,50.906,70.368,79.411        c0.29,0.386,0.658,0.747,1.082,1.031c1.949,1.291,4.583,0.76,5.873-1.19l0.032-0.044c36.221-54.47,80.594-104.484,128.392-149.047        c10.128-9.445,20.579-18.49,31.068-27.523c2.741-2.361,5.552-4.64,8.331-6.951c0,0,17.857-15.914,49.501-29.638        C561.197,250.373,535.757,277.333,509.215,325.315z"/>
      <path id="color_x5F_1" fill="#00AEEF"
            d="M128.105,510.646c-1.918-62.503-14.122-224.015-86.598-355.667        c-6.014-10.932-1.646-24.643,9.634-29.979L311.115,2.083c11.071-5.235,24.245-0.246,29.1,10.995        c8.925,20.687,23.042,55.882,36.512,99.806l-183.495,27.181c-12.9,1.912-24.57,9.147-32.011,19.851        c-7.463,10.735-10.188,24.244-7.476,37.056c26.78,126.474,2.342,262.267-14.546,331.783        C132.871,525.205,128.348,518.628,128.105,510.646z"/>
  </g>
</svg>